# xmcd
#
# Track frame offsets:
#	150
#	15872
#	35835
#	52277
#	68980
#	84517
#	100147
#	115635
#	128782
#	141917
#	155787
#	176690
#	191617
#	214177
#	226722
#	240500
#	254132
#	267635
#	284142
#	295090
#	307745
#
# Disc length: 4353 seconds
#
# Revision: 4
# Processed by: cddbd v1.5.1PL0 Copyright (c) Steve Scherf et al.
# Submitted via: audiograbber 1.83.01
#
DISCID=3d10ff15
DTITLE=Various Artist - Boot Scootin' 8
DYEAR=1900
DGENRE=Country
TTITLE0=David Lee Murphy - Every Time I Get Around You
TTITLE1=John Michael Montgomery - I Swear
TTITLE2=Kenny Rogers - Lucille
TTITLE3=Ty Herndon - Loved Too Much
TTITLE4=Rhett Akins - I Brake For Brunettes
TTITLE5=Deana Carter - Count Me In
TTITLE6=John Conlee - Rose Colored Glasses
TTITLE7=Lee Roy Parnell feat, Brooks and Dunn - Take These Chains From My Heart (
TTITLE7=Edit)
TTITLE8=Chris LeDoux - Cadillac Ranch
TTITLE9=Frazier River - Tangled Up In Texas [ Radio Edit]
TTITLE10=Clarence Carter - Strokin'
TTITLE11=Pam Tillis - All The Good Ones Are Gone
TTITLE12=Mavericks - Children
TTITLE13=Freddy Fender - Wasted Days and Wasted Nights
TTITLE14=John Andersion - Money In The Bank
TTITLE15=David Houston - Almost Persuaded
TTITLE16=Marty Stuart - If I Ain't Got You
TTITLE17=Rodney Crowell - The Rose Of Memphis
TTITLE18=Sammy Kershaw - Your Tattoo
TTITLE19=Clay Walker - What's It To You
TTITLE20=Joe Ely - Highways and Heartaches
EXTD=
EXTT0=
EXTT1=
EXTT2=
EXTT3=
EXTT4=
EXTT5=
EXTT6=
EXTT7=
EXTT8=
EXTT9=
EXTT10=
EXTT11=
EXTT12=
EXTT13=
EXTT14=
EXTT15=
EXTT16=
EXTT17=
EXTT18=
EXTT19=
EXTT20=
PLAYORDER=
